<?xml version="1.0" encoding="iso-8859-1"?>
<!-- Uploaded to: SVG Repo, www.svgrepo.com, Generator: SVG Repo Mixer Tools -->
<svg fill="#000000" height="800px" width="800px" version="1.1" id="Layer_1" xmlns="http://www.w3.org/2000/svg" xmlns:xlink="http://www.w3.org/1999/xlink" 
	 viewBox="0 0 511.999 511.999" xml:space="preserve">
<g>
	<g>
		<path d="M458.27,393.644c-12.045-6.553-27.281-5.499-38.292,2.677c-1.406,1.044-2.735,2.192-3.973,3.43
			c-11.184,11.184-13.659,28.995-5.84,42.774c7.966,14.039,24.863,21.056,40.433,16.837c14.34-3.885,24.944-16.7,26.145-31.484
			C477.874,413.955,470.554,400.328,458.27,393.644z M455.144,438.89c-5.39,5.39-13.643,7.178-20.79,4.531
			c-7.872-2.914-13.1-10.759-12.816-19.14c0.3-8.835,6.707-16.581,15.339-18.518c8.436-1.894,17.366,2.078,21.563,9.647
			C462.648,423.001,461.28,432.755,455.144,438.89z"/>
	</g>
</g>
<g>
	<g>
		<path d="M494.283,388.461L389.285,283.463l38.009-38.009v-0.001c15.563-15.563,15.563-40.887,0-56.451l-88.735-88.737
			c-3.118-3.117-8.173-3.117-11.289,0c-3.118,3.119-3.118,8.173,0,11.291l31.908,31.908l-48.924,48.923l-36.505-36.504
			c-3.118-3.117-8.173-3.117-11.29,0c-3.118,3.119-3.118,8.173,0,11.291l36.504,36.504l-33.871,33.87l-18.441-18.441
			c-3.118-3.116-8.173-3.118-11.29,0c-3.118,3.119-3.118,8.173,0,11.291l18.439,18.44l-41.397,41.396l-25.967-25.967
			c-3.118-3.117-8.173-3.117-11.29,0c-3.118,3.119-3.118,8.173,0,11.291l25.967,25.966l-41.398,41.398L35.525,218.733l14.301-14.301
			l46.29,46.289c7.532,7.532,19.533,9.181,28.795,3.885c8.403-4.804,13.149-14.44,11.867-24.025
			c-0.693-5.175-3.099-10.039-6.79-13.73l-12.042-12.042c-3.112-3.114-3.112-8.179,0-11.291c3.114-3.114,8.178-3.112,11.291,0
			l46.665,46.665c7.068,7.068,18.123,9.013,27.17,4.732c9.078-4.295,14.578-14.063,13.599-24.045
			c-0.538-5.485-3.004-10.661-6.899-14.556l-54.193-54.193c-3.248-3.247-3.029-8.727,0.458-11.712
			c3.122-2.672,7.929-2.48,10.833,0.424l12.042,12.042c4.524,4.524,10.538,7.016,16.936,7.016c6.397,0,12.411-2.492,16.935-7.015
			c9.338-9.338,9.338-24.532,0-33.871l-13.55-13.549c-3.112-3.114-3.112-8.179,0-11.291c3.114-3.114,8.177-3.114,11.29-0.001
			l31.613,31.614c9.338,9.336,24.532,9.337,33.871-0.001c9.336-9.337,9.336-24.532,0-33.871l-56.828-56.827l15.806-15.806
			l58.221,58.221c3.118,3.117,8.173,3.117,11.29,0c3.118-3.119,3.118-8.173,0-11.291L240.629,2.338
			c-3.118-3.117-8.173-3.117-11.29,0l-210.75,210.75c-3.118,3.119-3.118,8.173,0,11.291l186.664,186.664
			c7.539,7.538,17.563,11.691,28.226,11.691c10.663,0,20.686-4.152,28.226-11.691l37.258-37.258l104.998,104.999
			c10.895,10.894,25.205,16.341,39.516,16.341c14.31,0,28.621-5.447,39.516-16.341l11.289-11.291
			c10.555-10.555,16.368-24.589,16.368-39.516S504.838,399.016,494.283,388.461z M207.889,46.368l56.828,56.827
			c3.112,3.114,3.112,8.179,0,11.291c-3.112,3.116-8.177,3.114-11.291,0l-31.613-31.613c-9.337-9.336-24.531-9.337-33.871,0.001
			c-9.337,9.337-9.337,24.532,0,33.871l13.548,13.548c3.077,3.075,3.075,8.214,0,11.29c-3.077,3.076-8.213,3.075-11.29-0.001
			l-12.043-12.042c-9.337-9.337-24.53-9.337-33.87,0c-4.524,4.524-7.015,10.538-7.015,16.935s2.492,12.411,7.015,16.935
			l54.193,54.193c3.077,3.076,3.076,8.214,0,11.29c-3.077,3.076-8.213,3.075-11.29-0.001l-46.665-46.667
			c-9.338-9.336-24.532-9.337-33.871,0.001c-9.337,9.337-9.337,24.532,0,33.871l12.043,12.042c3.077,3.076,3.075,8.214,0,11.29
			c-3.077,3.076-8.213,3.075-11.29-0.001l-46.29-46.289L207.889,46.368z M171.008,354.215l199.46-199.46l6.774,6.774
			l-199.46,199.459L171.008,354.215z M250.415,399.751c-9.339,9.338-24.532,9.338-33.871,0.001l-27.472-27.474l199.46-199.46
			l27.473,27.472c9.337,9.338,9.337,24.533,0,33.872v-0.001L250.415,399.751z M482.993,456.203l-11.289,11.289
			c-15.564,15.563-40.889,15.563-56.451,0L310.254,362.494l67.741-67.74l104.998,104.999c7.539,7.538,11.691,17.562,11.691,28.225
			S490.533,448.663,482.993,456.203z"/>
	</g>
</g>
<g>
	<g>
		<path d="M77.533,318.372c-1.501-2.071-3.904-3.297-6.462-3.297s-4.961,1.225-6.462,3.297c-0.375,0.516-9.311,12.859-20.474,30.164
			c-2.391,3.704-1.324,8.645,2.38,11.036c3.705,2.389,8.647,1.325,11.036-2.381c5.204-8.066,9.968-15.106,13.539-20.28
			c19.396,28.023,53.736,82.394,53.736,105.366c0,29.641-24.114,53.755-53.755,53.755s-53.755-24.114-53.755-53.755
			c0-6.44,3.214-22.779,24.737-59.859c2.214-3.813,0.917-8.699-2.896-10.912c-3.813-2.214-8.699-0.915-10.912,2.897
			C10.147,405.58,1.349,427.782,1.349,442.277c0,38.445,31.277,69.721,69.721,69.721s69.721-31.277,69.721-69.721
			C140.792,406.62,84.008,327.299,77.533,318.372z"/>
	</g>
</g>
<g>
	<g>
		<path d="M86.908,378.965c-2.281-3.773-7.188-4.986-10.962-2.704c-3.773,2.281-4.985,7.188-2.704,10.962
			c25.167,41.649,26.014,54.613,26.036,55.054c0,15.554-12.653,28.208-28.208,28.208c-4.409,0-7.983,3.573-7.983,7.983
			s3.574,7.983,7.983,7.983c24.358,0,44.175-19.817,44.175-44.175C115.245,438.426,113.202,422.479,86.908,378.965z"/>
	</g>
</g>
</svg>